<?xml version="1.0" standalone="no"?><!DOCTYPE svg PUBLIC "-//W3C//DTD SVG 1.1//EN" "http://www.w3.org/Graphics/SVG/1.1/DTD/svg11.dtd"><svg t="1712820958767" class="icon" viewBox="0 0 1102 1024" version="1.1" xmlns="http://www.w3.org/2000/svg" p-id="7743" xmlns:xlink="http://www.w3.org/1999/xlink" width="215.234375" height="200"><path d="M170.535385 439.926154h450.56a39.384615 39.384615 0 0 1 39.384615 39.384615v318.227693a39.384615 39.384615 0 0 1-39.384615 39.384615H170.535385a39.384615 39.384615 0 0 1-39.384616-39.384615v-318.227693a39.384615 39.384615 0 0 1 39.384616-39.384615z" fill="#FFD6AB" p-id="7744"></path><path d="M265.334154 711.995077l223.074461 0.157538a29.538462 29.538462 0 0 0 0.07877-59.076923l-223.074462-0.157538a29.538462 29.538462 0 0 0-0.078769 59.076923z" fill="#FF960B" p-id="7745"></path><path d="M541.026462 936.172308h-421.415385c-23.709538 0-43.598769-20.873846-43.598769-47.458462V123.470769c0-26.545231 19.889231-47.458462 43.638154-47.458461h728.772923c23.748923 0 43.638154 20.873846 43.638153 47.458461V556.898462a33.083077 33.083077 0 1 0 66.166154 0V123.470769c0-62.385231-48.797538-113.624615-109.804307-113.624615H119.650462C58.604308 9.846154 9.846154 61.046154 9.846154 123.470769v765.243077c0 62.385231 48.797538 113.624615 109.804308 113.624616h421.415384a33.083077 33.083077 0 0 0 0-66.166154z" fill="#333333" p-id="7746"></path><path d="M192.196923 268.760615h181.838769v32.964923H230.833231v73.728h134.695384v32.964924h-134.695384v80.462769H380.061538v32.964923H192.196923V268.760615z m207.714462 0h207.36v32.964923h-84.361847v220.120616h-38.281846V301.725538h-84.716307v-32.964923z m237.843692 0h171.913846v32.964923h-133.277538v73.728h125.833846v32.964924h-125.833846v113.427692h-38.636308V268.760615z" fill="#333333" p-id="7747"></path><path d="M899.662769 706.008615v93.223385c20.913231-29.774769 35.091692-65.220923 42.889846-106.338462l32.610462 4.253539a348.16 348.16 0 0 1-11.342769 45.016615h114.136615c0 125.479385-1.772308 202.752-5.316923 231.817846-3.544615 29.065846-19.495385 43.953231-48.561231 43.953231-9.924923 0-26.939077-0.708923-51.396923-1.417846l-7.798154-30.129231c20.558769 1.063385 38.636308 1.772308 54.232616 1.772308 12.406154 0 19.849846-8.861538 21.976615-26.584615 2.126769-18.432 3.190154-80.462769 3.899077-186.801231h-93.932308a296.448 296.448 0 0 1-35.091692 57.068308l-16.305231-20.913231v120.871384h-29.774769v-194.953846h-65.929846v194.953846h-30.129231v-225.792h125.833846z m105.984 144.620308c10.633846 27.648 20.913231 58.131692 30.838154 91.096615l-27.293538 13.824c-2.126769-8.507077-4.608-16.659692-6.73477-24.457846-26.939077 5.671385-56.004923 10.279385-87.552 13.469539l-5.316923-29.065846c11.342769-5.671385 27.293538-43.953231 47.497846-114.491077l30.483693 10.279384a855.355077 855.355077 0 0 1-40.763077 101.376 378.486154 378.486154 0 0 0 47.497846-8.152615 625.191385 625.191385 0 0 0-14.178462-41.472l25.521231-12.406154z m-182.902154-91.451077h27.648v116.263385c-0.708923 39.699692-6.734769 71.601231-17.723077 94.995692-10.633846 21.976615-28.002462 39.345231-52.105846 51.396923l-17.723077-28.002461c22.685538-11.697231 38.281846-26.230154 46.434462-43.953231 7.798154-19.140923 12.406154-43.953231 13.469538-74.436923v-116.263385z m42.889847 181.484308c19.140923 18.432 35.800615 36.509538 49.270153 54.587077l-24.457846 23.748923c-10.633846-17.723077-26.230154-36.864-46.08-57.422769l21.267693-20.913231z" fill="#333333" p-id="7748"></path></svg>