<?xml version="1.0" standalone="no"?><!DOCTYPE svg PUBLIC "-//W3C//DTD SVG 1.1//EN" "http://www.w3.org/Graphics/SVG/1.1/DTD/svg11.dtd"><svg t="1712133769492" class="icon" viewBox="0 0 1024 1024" version="1.1" xmlns="http://www.w3.org/2000/svg" p-id="36713" xmlns:xlink="http://www.w3.org/1999/xlink" width="220px" height="220px"><path d="M954.181818 907.636364H69.818182c-39.563636 0-69.818182-30.254545-69.818182-69.818182V186.181818c0-39.563636 30.254545-69.818182 69.818182-69.818182h884.363636c39.563636 0 69.818182 30.254545 69.818182 69.818182v651.636364c0 39.563636-30.254545 69.818182-69.818182 69.818182zM69.818182 162.909091c-13.963636 0-23.272727 11.636364-23.272727 23.272727v651.636364c0 13.963636 9.309091 23.272727 23.272727 23.272727h884.363636c13.963636 0 23.272727-9.309091 23.272727-23.272727V186.181818c0-13.963636-9.309091-23.272727-23.272727-23.272727H69.818182z" fill="#C9CACF" p-id="36714"></path><path d="M116.363636 232.727273h791.272728v186.181818H116.363636z" fill="#F18C27" p-id="36715"></path><path d="M756.363636 360.727273h-69.818181v-69.818182h69.818181v69.818182z m-46.545454-23.272728h23.272727v-23.272727h-23.272727v23.272727zM849.454545 360.727273h-69.818181v-69.818182h69.818181v69.818182z m-46.545454-23.272728h23.272727v-23.272727h-23.272727v23.272727z" fill="#FFFFFF" p-id="36716"></path><path d="M116.363636 465.454545h209.454546v325.818182H116.363636zM372.363636 465.454545h535.272728v325.818182H372.363636z" fill="#C9CACF" p-id="36717"></path></svg>