<?xml version="1.0" standalone="no"?><!DOCTYPE svg PUBLIC "-//W3C//DTD SVG 1.1//EN" "http://www.w3.org/Graphics/SVG/1.1/DTD/svg11.dtd"><svg t="1712136433653" class="icon" viewBox="0 0 1194 1024" version="1.1" xmlns="http://www.w3.org/2000/svg" p-id="81470" xmlns:xlink="http://www.w3.org/1999/xlink" width="233.203125" height="200"><path d="M1024 0a170.666667 170.666667 0 0 1 170.666667 170.666667v682.666666a170.666667 170.666667 0 0 1-170.666667 170.666667H170.666667a170.666667 170.666667 0 0 1-170.666667-170.666667V170.666667a170.666667 170.666667 0 0 1 170.666667-170.666667z m0 113.777778H170.666667a56.888889 56.888889 0 0 0-56.888889 56.888889v682.666666a56.888889 56.888889 0 0 0 56.888889 56.888889h853.333333a56.888889 56.888889 0 0 0 56.888889-56.888889V170.666667a56.888889 56.888889 0 0 0-56.888889-56.888889z m-85.333333 426.666666a56.888889 56.888889 0 0 1 56.888889 56.888889v170.666667a56.888889 56.888889 0 0 1-56.888889 56.888889H256a56.888889 56.888889 0 0 1-56.888889-56.888889v-170.666667a56.888889 56.888889 0 0 1 56.888889-56.888889h682.666667z" fill="#8d8d8d" p-id="81471"></path></svg>