<?xml version="1.0" standalone="no"?><!DOCTYPE svg PUBLIC "-//W3C//DTD SVG 1.1//EN" "http://www.w3.org/Graphics/SVG/1.1/DTD/svg11.dtd"><svg t="1712132803435" class="icon" viewBox="0 0 1024 1024" version="1.1" xmlns="http://www.w3.org/2000/svg" p-id="16201" xmlns:xlink="http://www.w3.org/1999/xlink" width="200" height="200"><path d="M938.605672 725.257869a85.169939 85.169939 0 0 1 70.344225 37.042023l3.339125 5.253556a85.125417 85.125417 0 0 1 11.664675 43.096968v127.999778a85.348025 85.348025 0 0 1-85.303503 85.303503h-127.999778a86.55011 86.55011 0 0 1-35.795416-7.835812 89.399497 89.399497 0 0 1-7.301552-3.828863l-5.253556-3.339125a85.659677 85.659677 0 0 1-36.997501-70.344225v-127.999777c0-47.103918 38.199586-85.303504 85.303504-85.303504z m-362.628935 0a84.947331 84.947331 0 0 1 66.559885 32.011075l3.784341 5.030948c9.438592 13.757193 15.0038 30.408295 15.0038 48.350524v127.999778a85.348025 85.348025 0 0 1-85.348026 85.303503h-127.955255c-2.226083 0-4.452166-0.044522-6.67825-0.222608l-6.544684-0.80139a84.769244 84.769244 0 0 1-24.308827-7.613204l-5.565208-3.027473a85.348025 85.348025 0 0 1-19.411444-15.582581l-4.140515-4.719297a85.615155 85.615155 0 0 1-14.781192-27.60343l-1.647301-6.188511a85.570634 85.570634 0 0 1-2.270605-19.589531v-127.955256a85.258982 85.258982 0 0 1 85.303504-85.348025z m-362.673456 0a84.947331 84.947331 0 0 1 70.344226 37.042023l3.339124 5.253556a85.125417 85.125417 0 0 1 11.709197 43.096968v127.999778A85.348025 85.348025 0 0 1 213.347803 1023.998219H85.348025a86.55011 86.55011 0 0 1-25.778042-4.006949l-5.965902-2.13704a84.813766 84.813766 0 0 1-11.353024-5.565208l-5.253556-3.339125a85.659677 85.659677 0 0 1-18.253881-16.918231l-3.695298-5.030948A85.348025 85.348025 0 0 1 0 938.605672v-127.999777c0-47.103918 38.199586-85.303504 85.348025-85.303504z m362.673456-362.584413c47.14844 0 85.348025 38.199586 85.348026 85.348026v127.955255a85.348025 85.348025 0 0 1-85.348026 85.348026h-127.955255a85.348025 85.348025 0 0 1-85.348026-85.348026v-127.955255c0-47.14844 38.199586-85.348025 85.348026-85.348026z m-362.673456 0l6.678249 0.26713a84.947331 84.947331 0 0 1 25.110218 5.787816l5.787816 2.626778a85.21446 85.21446 0 0 1 15.80519 10.061896l4.763817 4.095993c3.027473 2.804865 5.876859 5.876859 8.459116 9.12694l3.73982 4.986426a85.392547 85.392547 0 0 1 15.048321 48.395047v127.999777a85.348025 85.348025 0 0 1-85.348025 85.303504H85.348025a84.947331 84.947331 0 0 1-70.344225-36.997501A84.902809 84.902809 0 0 1 0 575.976737v-127.999777c0-47.103918 38.199586-85.348025 85.348025-85.348025H213.25876z m725.302391 0l6.678249 0.26713a84.947331 84.947331 0 0 1 25.065696 5.787816l5.787816 2.626778a85.21446 85.21446 0 0 1 15.849711 10.017374l4.763818 4.140515c3.027473 2.804865 5.876859 5.876859 8.459116 9.12694l3.739819 4.986426a85.392547 85.392547 0 0 1 15.0038 48.395047v127.999777a85.348025 85.348025 0 0 1-85.303503 85.303504h-127.999778a85.258982 85.258982 0 0 1-85.348025-85.348026v-127.999777c0-47.103918 38.199586-85.348025 85.303504-85.348025h127.999777z m-362.628935 42.651752h-127.955255a42.785317 42.785317 0 0 0-42.696274 42.696274v127.955255c0.089043 23.596481 19.144315 42.60723 42.696274 42.696274h127.955255a42.785317 42.785317 0 0 0 42.696274-42.696274v-127.955255a42.785317 42.785317 0 0 0-42.696274-42.696274z m-105.471816 68.696924a9.483114 9.483114 0 0 1 12.911282-3.606254l66.337276 34.326201a8.013899 8.013899 0 0 1 0 14.514061l-66.337276 34.148115a9.349549 9.349549 0 0 1-14.068845-7.257031v-68.296229a9.483114 9.483114 0 0 1 1.157563-3.828863z m340.145495-175.370825a85.21446 85.21446 0 0 1-43.096968-11.664676l-5.253556-3.339124a85.659677 85.659677 0 0 1-36.997501-70.344226V85.348025C725.257869 38.199586 763.501977 0 810.605895 0h127.999777a85.169939 85.169939 0 0 1 48.395046 15.048322l4.986426 3.695298a85.659677 85.659677 0 0 1 31.966553 66.604405v127.999778c0 42.651752-31.254207 77.95743-72.125091 84.324027l-6.544685 0.712347-6.678249 0.311651zM576.199346 0a85.125417 85.125417 0 0 1 71.412745 39.045497c8.637202 13.356499 13.66815 29.250732 13.66815 46.302528v127.999778a85.348025 85.348025 0 0 1-85.348025 85.348025l-127.999778-0.044521a85.21446 85.21446 0 0 1-37.487239-8.637203l-5.565207-3.027473a85.348025 85.348025 0 0 1-19.411445-15.582581l-4.140515-4.719296a85.615155 85.615155 0 0 1-14.781191-27.603431l-1.647302-6.188511a85.570634 85.570634 0 0 1-2.270604-19.545009V85.303504C362.628935 38.199586 400.82852 0 447.932438 0zM213.25876 0a85.169939 85.169939 0 0 1 48.395046 15.048322L266.684754 18.699098a85.659677 85.659677 0 0 1 32.011074 66.604406v127.999777a85.348025 85.348025 0 0 1-85.348025 85.348026H85.348025c-8.993376 0-17.630578-1.424693-25.778042-4.00695l-5.965902-2.092518a84.813766 84.813766 0 0 1-11.353024-5.609729l-5.253556-3.339125a85.570634 85.570634 0 0 1-18.253881-16.918231l-3.695298-5.030948A85.348025 85.348025 0 0 1 0 213.303281V85.348025C0 38.199586 38.199586 0 85.348025 0z" fill="#8d8d8d" opacity=".7" p-id="16202"></path></svg>