<?xml version="1.0" standalone="no"?><!DOCTYPE svg PUBLIC "-//W3C//DTD SVG 1.1//EN" "http://www.w3.org/Graphics/SVG/1.1/DTD/svg11.dtd"><svg t="1712818799600" class="icon" viewBox="0 0 1024 1024" version="1.1" xmlns="http://www.w3.org/2000/svg" p-id="4250" xmlns:xlink="http://www.w3.org/1999/xlink" width="200" height="200"><path d="M540.672 500.49219V281.697524c-8.045714-1.26781-15.701333-13.848381-24.137143-13.848381h-4.827428c-9.849905 0-19.017143 13.116952-28.379429 14.531047v218.112H24.624762V326.022095c0-32.085333 25.697524-58.172952 57.344-58.172952h105.081905c-34.620952-16.969143-53.540571-39.936-63.195429-62.70781-28.038095-65.828571 14.384762-144.969143 68.510476-186.075428 23.893333-18.18819 55.100952-22.869333 92.452572-14.043429 79.286857 18.724571 178.663619 99.230476 229.327238 162.230857C564.760381 104.252952 664.137143 23.747048 743.424 5.022476c37.351619-8.777143 68.559238-4.096 92.452571 14.043429 54.125714 41.106286 96.548571 120.246857 68.510477 186.075428-9.654857 22.820571-28.720762 45.738667-63.488 62.70781h101.13219c31.646476 0 57.344 26.087619 57.344 58.172952v174.470095h-458.703238z m-268.775619-438.857142a96.060952 96.060952 0 0 0-21.455238-2.779429 38.424381 38.424381 0 0 0-23.747048 6.826667c-36.230095 27.452952-65.77981 79.872-50.224762 116.443428 8.728381 20.382476 56.32 82.358857 307.492572 41.496381-30.622476-48.859429-135.070476-143.750095-212.114286-161.987047z m579.876571 120.441904c15.555048-36.571429-13.945905-88.941714-50.224762-116.443428-9.752381-7.363048-25.063619-8.679619-45.104761-3.998476-77.482667 18.285714-182.51581 114.005333-212.601905 162.669714 251.270095 40.911238 299.154286-21.650286 307.931428-42.179048zM483.328 1023.951238H139.312762c-31.695238 0-57.344-26.038857-57.344-58.12419v-407.161905h401.359238v465.286095z m458.703238-58.12419c0 32.085333-25.697524 58.12419-57.344 58.12419h-344.015238v-465.237333h401.310476v407.113143z" fill="#FF653F" p-id="4251"></path></svg>