<?xml version="1.0" standalone="no"?><!DOCTYPE svg PUBLIC "-//W3C//DTD SVG 1.1//EN" "http://www.w3.org/Graphics/SVG/1.1/DTD/svg11.dtd"><svg t="1712133141511" class="icon" viewBox="0 0 1047 1024" version="1.1" xmlns="http://www.w3.org/2000/svg" p-id="28901" xmlns:xlink="http://www.w3.org/1999/xlink" width="204.4921875" height="200"><path d="M764.356 771.977L521.836 25.529a33.816 33.816 0 0 0-43.152-21.433L23.766 157.339A34.697 34.697 0 0 0 1.667 200.68L244.188 947.13a33.792 33.792 0 0 0 43.104 21.408l454.965-153.195a34.697 34.697 0 0 0 22.1-43.341zM439.176 631.57l-0.261-0.31 0.238 0.572c-116.95-9.907-285.1-89.303-233.924-190.988 51.176-101.733 148.623-24.814 148.623-24.814l0.071 0.166 0.095-0.476s18.075-124.19 124.142-86.825c106.092 37.364 38.698 213.134-38.983 302.675z m572.988-481.28a35.316 35.316 0 0 0-36.959-33.697l-110.52 5.096 119.593 750.426c2.953 18.574-9.31 36.435-27.41 39.864l-424.793 80.253a35.386 35.386 0 0 0 31.697 16.67l450.155-20.718a35.483 35.483 0 0 0 33.863-36.936l-35.626-800.982zM909.931 857.207L786.29 81.206c-2.977-18.575-20.051-30.91-38.15-27.482L594.396 82.777l221.232 683.008 0.643-0.095 12.24 37.698a34.697 34.697 0 0 1-22.1 43.389L406.815 981.325c5.715 2.477 12.169 3.334 18.813 2.12l456.918-86.373c18.099-3.43 30.363-21.266 27.386-39.865z" p-id="28902" fill="#8d8d8d"></path></svg>