<?xml version="1.0" standalone="no"?><!DOCTYPE svg PUBLIC "-//W3C//DTD SVG 1.1//EN" "http://www.w3.org/Graphics/SVG/1.1/DTD/svg11.dtd"><svg t="1712133495535" class="icon" viewBox="0 0 1024 1024" version="1.1" xmlns="http://www.w3.org/2000/svg" p-id="30301" xmlns:xlink="http://www.w3.org/1999/xlink" width="200" height="200"><path d="M692.06016 397.06624H0V1024h990.4128V397.06624h-298.35264zM299.8272 933.15072H90.84928v-445.2352H299.8272v445.2352z m299.8272 0H390.7584v-445.2352h208.97792v445.2352z m299.86816 0H690.5856v-445.2352h208.97792v445.2352zM408.69888 270.82752l88.02304-46.2848 87.98208 46.2848-16.7936-97.97632 71.18848-69.38624-98.38592-14.336L496.72192 0l-44.032 89.16992-98.38592 14.29504 71.18848 69.38624-16.7936 97.97632zM687.88224 256.16384l-16.7936 97.97632 87.98208-46.2848 87.98208 46.2848-16.7936-97.97632 71.18848-69.4272-98.38592-14.29504-43.99104-89.16992-43.99104 89.16992-98.38592 14.336 71.18848 69.38624zM146.35008 354.14016l87.98208-46.2848 88.02304 46.2848-16.7936-97.97632 71.18848-69.4272-98.38592-14.29504L234.2912 83.27168 190.34112 172.4416l-98.38592 14.336 71.18848 69.38624-16.7936 97.97632z" fill="#8d8d8d" p-id="30302"></path><path d="M769.39264 668.09856h34.52928l-68.608 156.59008 36.6592 29.40928 97.11616-231.71072h-145.408v64.02048h45.71136v-18.30912zM464.97792 668.09856h34.52928l-68.608 156.59008 36.70016 29.40928 97.0752-231.71072h-145.36704v64.02048h45.6704v-18.30912zM165.15072 668.09856h34.52928L131.072 824.68864l36.6592 29.40928 97.11616-231.71072H119.48032v64.02048h45.6704v-18.30912z" fill="#8d8d8d" p-id="30303"></path></svg>