<?xml version="1.0" standalone="no"?><!DOCTYPE svg PUBLIC "-//W3C//DTD SVG 1.1//EN" "http://www.w3.org/Graphics/SVG/1.1/DTD/svg11.dtd"><svg t="1712134262886" class="icon" viewBox="0 0 1024 1024" version="1.1" xmlns="http://www.w3.org/2000/svg" p-id="54515" xmlns:xlink="http://www.w3.org/1999/xlink" width="200" height="200"><path d="M1018.368 150.528c0-39.424-15.36-76.8-43.52-104.448C947.2 17.92 909.824 3.072 870.4 3.072H153.6c-39.936 0-77.312 15.36-104.96 43.52-27.648 27.648-42.496 64.512-42.496 103.936v718.848c0 39.424 15.36 76.288 43.008 104.448 27.648 27.648 65.024 43.008 104.448 43.008h716.8c38.912 0 76.8-15.872 104.448-43.52 27.648-27.648 43.52-66.048 43.52-104.96V150.528z m-71.68 720.896c0 39.936-32.256 72.192-71.68 72.704H151.04c-39.936 0-72.192-32.256-72.192-72.192V147.968c0-39.936 32.256-72.192 72.192-72.192h723.968c39.936 0 72.192 32.256 72.192 72.192v723.456z" fill="#8d8d8d" p-id="54516"></path><path d="M302.592 510.464c0-23.552-18.944-42.496-42.496-42.496h-1.024c-23.552 0-42.496 18.944-42.496 42.496v1.024c0 23.552 19.456 42.496 42.496 42.496h1.024c24.064 0 42.496-18.944 42.496-42.496v-1.024zM769.536 467.968H437.76c-22.016 0-39.936 19.456-39.936 43.008 0 23.552 17.92 43.008 39.936 43.008h331.776c22.016 0 39.936-19.456 39.936-43.008 0.512-23.552-17.408-43.008-39.936-43.008zM769.536 682.496H437.76c-22.016 0-39.936 19.456-39.936 43.008s17.92 43.008 39.936 43.008h331.776c22.016 0 39.936-19.456 39.936-43.008s-17.408-43.008-39.936-43.008zM437.76 336.384h331.776c22.016 0 39.424-18.944 39.936-43.008 0-24.064-17.92-43.52-39.936-43.52H437.76c-22.016 0-39.936 19.456-39.936 43.008s17.92 43.52 39.936 43.52zM302.592 724.992c0-23.552-18.944-42.496-42.496-42.496h-1.024c-23.552 0-42.496 18.944-42.496 42.496v1.024c0 23.552 19.456 42.496 42.496 42.496h1.024c23.552 0 42.496-18.944 42.496-42.496v-1.024zM216.064 293.888c0 23.552 19.456 42.496 42.496 42.496h1.024c23.552 0 42.496-18.944 42.496-42.496v-1.024c0-23.552-18.944-42.496-42.496-42.496h-1.024c-23.552 0-42.496 18.944-42.496 42.496v1.024z" fill="#8d8d8d" p-id="54517"></path></svg>